<svg width="26" height="30" viewBox="0 0 26 30" fill="none" xmlns="http://www.w3.org/2000/svg">
<path fill-rule="evenodd" clip-rule="evenodd" d="M25.776 0.569946H21.18V28.1942C21.18 28.9624 22.046 29.1294 23.445 29.1294C24.943 29.1294 25.776 28.929 25.776 28.1608V0.569946ZM13.5884 11.9269C13.5884 14.9332 11.8236 16.8372 9.3929 16.8372C6.9621 16.8372 5.1973 14.9332 5.1973 11.9269C5.1973 8.95411 6.9621 7.01671 9.3929 7.01671C11.8236 7.01671 13.5884 8.95411 13.5884 11.9269ZM9.3929 20.6785C4.3316 20.6785 0.735397 17.1712 0.735397 11.9269C0.735397 6.68271 4.3316 3.17537 9.3929 3.17537C14.4542 3.17537 18.0837 6.68271 18.0837 11.9269C18.0837 17.1712 14.4542 20.6785 9.3929 20.6785Z" fill="#0E7159"/>
</svg>
