<svg width="30" height="25" viewBox="0 0 30 25" fill="none" xmlns="http://www.w3.org/2000/svg">
<path fill-rule="evenodd" clip-rule="evenodd" d="M24.924 4.382C25.823 4.382 25.957 3.7808 25.957 2.47808C25.957 1.20877 25.823 0.54071 24.924 0.54071H3.54701V4.382H7.44301V11.8977H3.54701V15.739H24.924C25.823 15.739 25.957 15.1378 25.957 13.8351C25.957 12.5658 25.823 11.8977 24.924 11.8977H21.361V4.382H24.924ZM0.484009 20.1816V24.0898H28.054C28.953 24.0898 29.087 23.4551 29.087 22.1524C29.087 20.8831 28.953 20.1816 28.054 20.1816H0.484009ZM11.871 11.8977H16.933V4.382H11.871V11.8977Z" fill="#0E7159"/>
</svg>
