<svg width="30" height="32" viewBox="0 0 30 32" fill="none" xmlns="http://www.w3.org/2000/svg">
<path fill-rule="evenodd" clip-rule="evenodd" d="M6.767 8.952C6.767 8.1169 7.067 7.3152 7.466 6.6138H3.803V3.03966H12.294V0H16.723V3.03966H24.648C25.547 3.03966 25.68 3.57411 25.68 4.84342C25.68 6.1461 25.547 6.6138 24.648 6.6138H21.385C21.784 7.3152 22.117 8.1169 22.117 8.952C22.117 11.7244 19.953 13.7954 16.889 14.4969V16.4342H28.011C28.91 16.4342 29.043 17.0021 29.043 18.2714C29.043 19.5741 28.91 20.0752 28.011 20.0752H0.440002V16.4342H12.294V14.5637C9.064 13.929 6.767 11.8246 6.767 8.952ZM5.768 30.4635C5.102 29.7954 4.436 28.7599 4.436 28.0585V21.9457H24.748V29.4948C24.748 31.0647 23.982 32 22.384 32H8.498C7.699 32 6.534 31.2651 5.768 30.4635ZM9.464 28.4593C9.098 28.4593 8.931 28.3591 8.931 27.8914V25.4864H20.253V28.4593H9.464ZM14.425 11.2902C16.29 11.2902 17.622 10.4551 17.622 8.952C17.622 7.4489 16.29 6.6138 14.425 6.6138C12.594 6.6138 11.262 7.4489 11.262 8.952C11.262 10.4551 12.594 11.2902 14.425 11.2902Z" fill="#0E7159"/>
</svg>
